<?xml version="1.0" standalone="no"?>
<!DOCTYPE svg PUBLIC "-//W3C//DTD SVG 20010904//EN"
 "http://www.w3.org/TR/2001/REC-SVG-20010904/DTD/svg10.dtd">
<svg version="1.0" xmlns="http://www.w3.org/2000/svg"
 width="483.000000pt" height="517.000000pt" viewBox="0 0 483.000000 517.000000"
 preserveAspectRatio="xMidYMid meet">
<metadata>
Created by potrace 1.16, written by Peter Selinger 2001-2019
</metadata>
<g transform="translate(0.000000,517.000000) scale(0.100000,-0.100000)"
fill="#000000" stroke="none">
<path d="M2035 5060 c-38 -4 -102 -8 -140 -9 -56 -1 -82 -7 -130 -31 -33 -16
-64 -30 -69 -30 -5 0 -45 -18 -90 -39 -44 -22 -175 -72 -291 -111 -384 -131
-428 -162 -564 -400 -233 -404 -429 -717 -518 -823 -12 -16 -23 -39 -23 -52 0
-33 84 -130 155 -178 114 -78 390 -237 428 -248 53 -14 77 3 175 127 75 95
143 162 159 157 11 -3 33 -91 43 -173 5 -41 14 -165 20 -275 6 -110 15 -256
20 -325 10 -140 7 -220 -20 -670 -23 -368 -36 -554 -53 -740 -6 -75 -12 -307
-12 -521 l0 -386 38 -42 c21 -23 42 -52 47 -65 11 -29 86 -79 157 -106 29 -11
111 -28 181 -37 113 -16 209 -18 847 -16 396 1 754 5 795 8 95 8 238 41 310
72 66 29 155 113 172 163 21 58 13 476 -11 604 -11 61 -22 175 -26 286 -4 102
-11 219 -16 260 -49 404 -72 1073 -49 1466 11 175 35 422 46 457 13 42 60 8
171 -123 48 -57 95 -106 103 -110 8 -4 29 -15 47 -24 58 -30 135 2 380 157
173 110 243 169 243 208 0 35 -40 111 -95 179 -124 154 -223 312 -406 642
-178 322 -202 347 -410 435 -79 34 -216 86 -304 116 -88 30 -198 73 -244 96
-47 22 -90 41 -97 41 -7 0 -26 11 -42 25 -17 14 -53 29 -82 35 -59 11 -735 11
-845 0z"/>
</g>
</svg>
