<?xml version="1.0" encoding="utf-8"?>
<!-- Generator: Adobe Illustrator 21.0.0, SVG Export Plug-In . SVG Version: 6.00 Build 0)  -->
<svg version="1.1" id="Layer_1" xmlns="http://www.w3.org/2000/svg" xmlns:xlink="http://www.w3.org/1999/xlink" x="0px" y="0px"
	 viewBox="0 0 1401.9 1261.7" style="enable-background:new 0 0 1401.9 1261.7;" xml:space="preserve">
<style type="text/css">
	.st0{fill-rule:evenodd;clip-rule:evenodd;fill:#1D1D1B;}
</style>
<path class="st0" d="M664.5,1065.3c0,0-182.8-2.5-277,36s-172.8,93-204,113s-74.4,56.8-114,43c-39.6-13.8-51-42.3-46-120
	s31-202,31-202s-41.3,21-48,13s-5.5-33.3-6-50s-2.7-201.7,9-304c4.5-39.2,7.7-145.3,82-262s90.3-123,109-139s144.7-94.7,212-118
	s165-43.3,218-46l2-2c0,0,6.7-25,51-27s67.3,8,64,18c0,0-4.3,8.7,3,9c7.3,0.3,165.7,9,270,61s211.3,138.3,278,225
	c66.7,86.7,95,240,100,311s3.7,162.3,1,213c-2.7,50.7-2.7,69.3-7,70c-4.3,0.7-21,0-21,0l-11,3l1,5c0,0,16.7,177,17,207
	c0.3,30,5.3,97.5-5,110s-39.5,35.5-74,28s-146.8-85.3-185-104s-93.3-56.5-242-80c-19.2-3-58.9-7-100-9
	C730,1065.2,686.1,1065.3,664.5,1065.3z"/>
</svg>
