<?xml version="1.0" encoding="utf-8"?>
<!-- Generator: Adobe Illustrator 21.0.0, SVG Export Plug-In . SVG Version: 6.00 Build 0)  -->
<svg version="1.1" id="Layer_1" xmlns="http://www.w3.org/2000/svg" xmlns:xlink="http://www.w3.org/1999/xlink" x="0px" y="0px"
	 viewBox="0 0 1199.8 802.9" style="enable-background:new 0 0 1199.8 802.9;" xml:space="preserve">
<g>
	<path d="M1200.8,673.9c0,1.7,0,3.3,0,5c-0.7,2.7-1.3,5.5-2.3,8.1c-14.4,36-39.3,61.2-76.1,74.1c-33.6,11.8-67.5,9.1-101.4,0.5
		c-2.2-0.6-5-0.4-7.1,0.4c-12.5,5-25,10.1-37.3,15.5c-38.3,16.8-78.4,25.1-120.3,25.7c-18.3,0.3-36-2.7-53.9-5.5
		c-30-4.6-59.5-11.5-87.8-22.7c-34.7-13.7-67.2-31.9-99.9-49.8c-59.8-32.7-115.8-71.3-170.6-111.7c-21.7-16-44.6-30.8-62.1-52.1
		c-2,0.4-4.2,1.1-6.5,1.4c-23.5,3.6-47,7.3-70.5,10.6c-32.5,4.6-64.9,8.9-97.4,13.2c-18.1,2.4-36.2,4.7-54.3,6.9
		c-16,1.9-32,3.7-48,5.2c-12.7,1.3-25.5,2.3-38.2,3.1c-18.9,1.2-37.8,2-56.8,3.1c-3.4,0.2-5.5-1-5.7-4.5c-0.2-2.3-0.7-4.8,0-6.8
		c1.8-4.5,1.6-8.9,0.2-13.3c-0.5-1.7-0.8-3.6-1-5.4c-1-8.7-2-17.4-3-26.1c0-4.3,0-8.7,0-13c0.4-8.9,1.1-17.8,1.1-26.7
		C2,491.1,1.8,473,4.6,455c2.6-17,3.4-34.3,5.6-51.4c2.6-20.5,5.2-41.1,9-61.4C24.8,312.5,35,284.2,48,257
		c13.7-28.7,32.5-54.1,51-79.7c4-5.6,9.5-10.2,14.5-15c3.3-3.2,7.2-5.9,10.2-9.4c18.1-20.8,40.6-36.5,62-53.3
		c25.7-20.1,54.4-34.2,87.2-38.9c15.5-2.2,29.3-8.9,42.5-17.1c14-8.7,28.7-16.3,44.9-20c8.7-2,17.6-2.8,26.5-4.2
		c-1.1-9.5,2.1-14.2,11.6-17c1.9-0.5,3.8-1,5.7-1.5c4,0,8,0,12,0c7.5,3,15.4,5.1,22.3,9.2c4.1,2.4,7.4,7.2,9.2,11.7
		c1.4,3.3,2.3,4.6,5.8,4.8c22.4,1.6,44.8,2.9,67.1,5.5c40.8,4.7,79.3,17.6,116.5,34.6c25.1,11.5,47.3,27.6,69.2,44.2
		c13.5,10.2,27.7,19.8,38.5,33.1c22.7,28,40.1,59.2,55.9,91.3c11.2,22.9,21.3,46.2,28.8,70.8c5.5,17.9,14,34.8,20.6,52.4
		c4.4,11.7,8.9,23.5,11.6,35.7c3.4,15.3,4.3,31.1,7.4,46.5c3.3,16.7,5.9,33.6,13.8,49.1c2.4,4.7,3.6,10.1,4.5,15.3
		c0.6,3.2,2,4.7,4.8,6.1c95.2,45.8,190.3,91.7,285.5,137.4C1189,654,1197.8,661.2,1200.8,673.9z"/>
</g>
</svg>
