<?xml version="1.0" standalone="no"?>
<!DOCTYPE svg PUBLIC "-//W3C//DTD SVG 20010904//EN"
 "http://www.w3.org/TR/2001/REC-SVG-20010904/DTD/svg10.dtd">
<svg version="1.0" xmlns="http://www.w3.org/2000/svg"
 width="481.000000pt" height="511.000000pt" viewBox="0 0 481.000000 511.000000"
 preserveAspectRatio="xMidYMid meet">
<metadata>
Created by potrace 1.16, written by Peter Selinger 2001-2019
</metadata>
<g transform="translate(0.000000,511.000000) scale(0.100000,-0.100000)"
fill="#000000" stroke="none">
<path d="M2761 4989 c-78 -52 -138 -75 -247 -94 -111 -19 -211 -19 -315 1
-102 19 -257 68 -323 101 -31 16 -59 23 -75 20 -70 -14 -107 -28 -145 -55 -22
-16 -90 -51 -151 -77 -60 -26 -148 -67 -195 -90 -78 -39 -189 -86 -343 -146
-77 -29 -148 -95 -240 -222 -117 -161 -196 -286 -319 -507 -118 -212 -187
-323 -244 -399 -19 -24 -34 -47 -34 -52 0 -18 94 -96 205 -170 161 -107 347
-200 414 -207 62 -6 69 1 188 175 46 66 90 124 100 127 42 17 83 -96 92 -259
8 -125 0 -706 -18 -1385 -6 -217 -16 -669 -22 -1005 -10 -571 -9 -611 7 -620
9 -5 30 -20 45 -33 75 -61 150 -65 1209 -63 1114 2 1198 7 1224 74 13 36 7
757 -14 1467 -6 212 -14 655 -17 985 -5 541 -4 606 11 665 24 94 60 167 86
175 12 4 23 5 24 3 2 -1 42 -58 89 -124 47 -67 104 -136 127 -154 37 -29 46
-32 90 -28 65 7 240 93 400 198 69 45 130 89 137 97 20 26 7 93 -27 137 -52
70 -139 214 -242 400 -122 219 -178 308 -281 451 -159 218 -173 229 -387 315
-85 35 -193 82 -240 105 -47 23 -133 63 -191 88 -58 25 -129 62 -158 81 -29
20 -63 36 -75 36 -11 1 -32 7 -46 15 -14 8 -28 14 -31 15 -4 0 -34 -19 -68
-41z m-785 -132 c54 -14 146 -33 204 -42 186 -32 426 -6 562 59 29 14 54 23
56 21 3 -2 -4 -19 -15 -37 -15 -27 -31 -36 -89 -55 -100 -31 -219 -45 -363
-44 -128 1 -191 9 -326 42 -133 33 -142 37 -154 70 -9 26 -8 28 8 20 10 -6 62
-21 117 -34z"/>
</g>
</svg>
