<?xml version="1.0" encoding="UTF-8" standalone="no"?>
<!DOCTYPE svg PUBLIC "-//W3C//DTD SVG 1.1//EN" "http://www.w3.org/Graphics/SVG/1.1/DTD/svg11.dtd">
<svg version="1.1" xmlns="http://www.w3.org/2000/svg" xmlns:xlink="http://www.w3.org/1999/xlink" preserveAspectRatio="xMidYMid meet" viewBox="128.30861048875306 22.833333333331463 354.7303505502081 594.4166666666703" width="350.73" height="590.42"><defs><path d="M476.71 194.17L480.04 154.17L475.71 95.75L475.71 54.25L461.33 47.75L443.37 42.17L417.99 34.75L390.32 23.83L259.43 24.75L230.93 24.75L224.43 26.75L211.93 32.42L196.43 39.25L176.43 44.25L160.43 47.75L138.93 56.75L129.31 61.19L137.93 95.75L142.98 145.49L152.43 209.75L157.43 217.25L158.43 235.75L161.93 255.25L161.93 281.75L164.43 304.25L164.43 322.25L164.43 348.25L163.43 368.25L161.93 391.25L160.43 426.25L158.43 450.25L156.43 476.75L152.43 511.75L152.43 539.25L152.43 572.25L154.43 590.75L160.43 599.25L174.93 606.25L196.43 610.25L217.93 614.25L248.43 614.25L286.77 614.25L336.77 614.25L375.27 614.25L423.27 614.25L441.33 610.25L461.33 602.75L474.83 592.25L473.67 563.75L474.83 541.75L473.67 523.75L471.33 490.75L469.33 465.25L467.33 439.75L464.83 417.75L464.83 393.75L462.83 355.75L461.33 317.25L462.83 279.25L462.83 253.25L467.33 231.25L469.33 217.25L473.67 209.75L476.71 194.17Z" id="f1rB9ken9E"></path></defs><g><g><g><use xlink:href="#f1rB9ken9E" opacity="1" fill-opacity="0" stroke="#3c1d1d" stroke-width="1" stroke-opacity="0"></use></g></g></g></svg>