<?xml version="1.0" encoding="UTF-8" standalone="no"?>
<!DOCTYPE svg PUBLIC "-//W3C//DTD SVG 1.1//EN" "http://www.w3.org/Graphics/SVG/1.1/DTD/svg11.dtd">
<svg version="1.1" xmlns="http://www.w3.org/2000/svg" xmlns:xlink="http://www.w3.org/1999/xlink" preserveAspectRatio="xMidYMid meet" viewBox="124.81818181818163 12.333333333333567 357.7333024118742 617.3333333333333" width="353.73" height="613.33"><defs><path d="M357.15 625.33L325.6 625.33L300.17 625.33L273.17 626.67L254.51 626.67L223.26 626.67L191.17 625.33L166.4 624L149.07 622.33L146.07 619.67L146.07 616L147.73 551L149.07 463.42L152.07 368.33L154.4 287.33L152.07 233L149.07 223L144.32 213.67L137.87 204.54L125.82 58.17L133.07 56.33L204.93 27.67L223.26 16.67L225.26 27.67L229.26 38.33L235.26 48.33L245.26 56.33L255.6 64.67L264.93 70.33L276.26 74.33L287.6 76L297.6 77L307.6 76L317.93 76L325.6 76L336.93 74.33L345.93 72L355.18 70.33L360.84 66.67L367.51 61.33L373.51 56.33L381.18 48.33L387.84 39.33L387.84 25L386.84 13.33L392.05 15.42L403.05 22.92L448.55 43.92L479.55 54.42L478.3 205.17L473.05 219.17L466.55 239.42L467.55 271.92L467.55 314.42L467.55 372.42L472.05 463.42L472.05 620.42L357.15 625.33Z" id="b7lQSSUxe1"></path></defs><g><g><use xlink:href="#b7lQSSUxe1" opacity="1" fill="#e65bc4" fill-opacity="0"></use><g><use xlink:href="#b7lQSSUxe1" opacity="1" fill-opacity="0" stroke="#ffffff" stroke-width="1" stroke-opacity="0"></use></g></g></g></svg>