<?xml version="1.0" encoding="UTF-8" standalone="no"?>
<!DOCTYPE svg PUBLIC "-//W3C//DTD SVG 1.1//EN" "http://www.w3.org/Graphics/SVG/1.1/DTD/svg11.dtd">
<svg version="1.1" xmlns="http://www.w3.org/2000/svg" xmlns:xlink="http://www.w3.org/1999/xlink" preserveAspectRatio="xMidYMid meet" viewBox="336.65584415584453 111.96680912499818 255.5 357.78319087500216" width="251.5" height="353.78"><defs><path d="M535.16 434.75L521.34 380.75L503.37 321.75L478.66 253.75L442.66 184.75L415.16 158.37L387.66 136.25L362.66 122.75L337.66 113.15C344.31 112.91 347.81 112.91 348.16 113.15C348.67 113.52 446.91 140.94 455.19 145.99C464.53 151.69 472.32 153.31 477.02 158.37C484.13 166.04 495.21 166.93 503.37 179.75C505.76 183.5 515.04 191.51 521.34 197.42C524.31 200.2 526.31 202.38 528.08 205.82C530.01 209.55 531.66 214.51 533.99 216.25C563.32 238.25 581.71 313.08 589.16 440.75L589.16 450.25L579.66 460.25L560.66 462.75L533.99 466.75L535.16 434.75Z" id="d1CdE6ZC0C"></path></defs><g><g><g><use xlink:href="#d1CdE6ZC0C" opacity="1" fill-opacity="0" stroke="#5b1414" stroke-width="1" stroke-opacity="0"></use></g></g></g></svg>