<?xml version="1.0" encoding="UTF-8" standalone="no"?>
<!DOCTYPE svg PUBLIC "-//W3C//DTD SVG 1.1//EN" "http://www.w3.org/Graphics/SVG/1.1/DTD/svg11.dtd">
<svg version="1.1" xmlns="http://www.w3.org/2000/svg" xmlns:xlink="http://www.w3.org/1999/xlink" preserveAspectRatio="xMidYMid meet" viewBox="148.5686456400743 92.87499999999882 288.6372912801484 248.87500000000063" width="284.64" height="244.88"><defs><path d="M434.21 338.69L434.21 333.14L432.19 324.57L428.16 313.48L428.16 301.19L424.14 288.28L424.14 270.64L421.62 258.03L417.09 239.38L413.56 224.26L408.02 202.59L405.5 184.94L397.81 168.31L390.76 153.19L379.69 138.06L369.11 127.48L358.03 118.4L348.97 111.35L334.37 102.78L320.27 95.22L309.19 93.87L284.52 93.87L275.45 95.22L258.33 101.26L245.74 105.8L235.67 111.35L222.58 122.94L207.48 138.06L195.89 150.66L187.84 165.28L182.3 177.38L177.77 188.97L171.72 200.57L166.69 213.68L162.16 225.77L159.14 236.36L157.63 247.45L154.6 260.05L154.6 276.18L151.58 290.8L149.57 307.94L149.57 323.57L149.57 338.75L434.21 338.69Z" id="ankVcRIZi"></path></defs><g><g><g><use xlink:href="#ankVcRIZi" opacity="1" fill-opacity="0" stroke="#0e0d0d" stroke-width="1" stroke-opacity="0"></use></g></g></g></svg>