<?xml version="1.0" encoding="UTF-8" standalone="no"?>
<!DOCTYPE svg PUBLIC "-//W3C//DTD SVG 1.1//EN" "http://www.w3.org/Graphics/SVG/1.1/DTD/svg11.dtd">
<svg version="1.1" xmlns="http://www.w3.org/2000/svg" xmlns:xlink="http://www.w3.org/1999/xlink" preserveAspectRatio="xMidYMid meet" viewBox="107.08256029684586 337.74999999999943 380.0083487940633 161.0000000000009" width="376.01" height="157"><defs><path d="M453.72 341.75L428.22 338.75L391.22 340.25L315.65 338.75L250.15 339.25L189.32 339.25L175.13 338.75L161.92 339.25L147.08 338.75L135.58 340.25L120.08 340.25L110.08 339.25L111.58 349.25L110.08 361.75L110.08 377.25L110.08 390.25L108.08 406.25L108.08 421.75L108.08 437.75L110.08 449.75L116.58 467.75L124.08 483.25L137.08 495.75L153.08 495.75L175.13 493.25L198.13 490.75L226.13 485.25L253.13 479.75L275.13 479.75L299.13 479.75L321.63 479.75L337.63 481.75L361.13 485.25L376.59 488.25L392.59 491.75L412.09 495.75L429.59 495.75L451.59 493.25L466.09 483.25L475.09 464.75L482.09 437.75L484.09 403.25L478.59 340.25L453.72 341.75Z" id="b4bLpu0Ck0"></path></defs><g><g><g><use xlink:href="#b4bLpu0Ck0" opacity="1" fill-opacity="0" stroke="#000000" stroke-width="1" stroke-opacity="0"></use></g></g></g></svg>