<?xml version="1.0" encoding="UTF-8" standalone="no"?>
<!DOCTYPE svg PUBLIC "-//W3C//DTD SVG 1.1//EN" "http://www.w3.org/Graphics/SVG/1.1/DTD/svg11.dtd">
<svg version="1.1" xmlns="http://www.w3.org/2000/svg" xmlns:xlink="http://www.w3.org/1999/xlink" preserveAspectRatio="xMidYMid meet" viewBox="174.50000000000009 403.7500000000001 300.4591836734693 73" width="296.46" height="69"><defs><path d="M202.6 414.25L216.6 414.25L232.1 415.75L248.1 414.25L262.1 415.75L277.6 415.75L291 415.75L306.96 415.75L320 412.75L336.46 414.25L352.96 414.25L362.46 414.25L374.5 415.75L396.96 412.75L415.96 410.75L430.46 407.75L440.46 407.75L453.5 404.75L459.96 404.75L463.46 410.75L465.46 419.25L469.96 430.75L471.96 441.25L471.96 451.75L469.96 458.25L467.46 464.75L453.5 467.75L435.5 464.75L420.5 464.75L407 467.75L391 470.75L374.5 470.75L360 472.25L339 472.25L329 472.25L317 472.25L304 470.75L299 473.75L291 473.75L281.5 473.75L268.5 472.25L256 470.75L243.5 470.75L236.5 470.75L227 470.75L220 470.75L210 469.25L196 469.25L175.5 469.25L175.5 462.25L175.5 455.25L175.5 447.25L175.5 436.25L177.5 423.75L179.5 412.75L202.6 414.25Z" id="a1vFwAGViz"></path></defs><g><g><g><use xlink:href="#a1vFwAGViz" opacity="1" fill-opacity="0" stroke="#5b1414" stroke-width="1" stroke-opacity="0"></use></g></g></g></svg>