<?xml version="1.0" encoding="UTF-8" standalone="no"?>
<!DOCTYPE svg PUBLIC "-//W3C//DTD SVG 1.1//EN" "http://www.w3.org/Graphics/SVG/1.1/DTD/svg11.dtd">
<svg version="1.1" xmlns="http://www.w3.org/2000/svg" xmlns:xlink="http://www.w3.org/1999/xlink" preserveAspectRatio="xMidYMid meet" viewBox="222.94737167594295 11.052884615382045 167.10581323438484 70.18750000000021" width="163.11" height="66.19"><defs><path d="M225.34 29.39L229.46 40.39L235.46 50.12L255.46 65.74L264.61 71.39L276.19 75.55L297.12 78.24L307.44 77.12L325.62 76.72L335.55 75.55L354.78 71.39L356.22 70.72L372.89 57.22L380.55 49.39L387.05 40.39L387.05 25.72L385.89 14.55L383.22 14.97L380.55 12.72L376.05 12.05L371.89 13.05L368.39 16.39L363.05 20.05L356.22 23.05L348.89 25.72L342.39 27.05L335.55 28.39L327.94 29.39L320.78 30.05L313.44 30.05L307.44 30.05L302.44 30.05L295.44 29.39L289.44 28.39L284.78 27.72L278.45 25.72L271.28 23.55L264.61 21.39L258.45 19.22L253.45 17.55L245.45 13.39L240.45 12.05L237.61 13.05L232.45 14.55L228.45 15.39L223.95 17.55L225.34 29.39Z" id="a2TJeh0QE"></path></defs><g><g><g><use xlink:href="#a2TJeh0QE" opacity="1" fill-opacity="0" stroke="#3c1f1f" stroke-width="1" stroke-opacity="0"></use></g></g></g></svg>