<?xml version="1.0" encoding="UTF-8" standalone="no"?>
<!DOCTYPE svg PUBLIC "-//W3C//DTD SVG 1.1//EN" "http://www.w3.org/Graphics/SVG/1.1/DTD/svg11.dtd">
<svg version="1.1" xmlns="http://www.w3.org/2000/svg" xmlns:xlink="http://www.w3.org/1999/xlink" preserveAspectRatio="xMidYMid meet" viewBox="314.1461038961039 92.05681818181847 201.52968460111333 252.5" width="197.53" height="248.5"><defs><path d="M436.18 338.75L440.18 338.75L445.18 339.56L450.43 339.56L455.93 341.56L458.93 339.56L466.93 340.56L472.18 339.56L476.68 338.75L479.68 338.75L483.43 338.75L488.68 335.81L496.68 334.81L503.18 333.31L509.93 329.31L512.68 325.06L512.68 320L512.68 309.31L511.43 299.51L509.93 292.56L508.18 283.81L506.68 274.06L505.18 264.31L503.18 253.06L502.43 246.31L501.68 242.56L500.93 236.06L500.93 231.06L497.34 223.06L495.09 216.31L491.34 207.56L488.09 201.31L484.09 194.56L480.59 186.81L478.09 182.81L475.84 179.31L470.09 173.06L467.59 169.81L464.34 164.81L461.34 160.31L456.84 155.06L452.84 150.06L448.34 145.31L444.59 141.56L437.65 137.31L432.15 132.81L421.4 126.06L414.65 121.81L405.87 115.81L395.9 111.56L388.4 109.06L377.9 104.06L368.4 102.31L356.65 100.06L346.15 97.31L336.9 95.06L321.9 93.06L315.15 93.87L320.65 95.06L349.15 110.56L368.4 126.06L379.9 138.31L390.65 152.56L405.87 184.31L408.62 202.81L424.62 269.56L424.62 288.56L428.37 300.81L428.37 313.06L434.87 331.81L434.21 338.75L436.18 338.75Z" id="b45q44KF5t"></path></defs><g><g><g><use xlink:href="#b45q44KF5t" opacity="1" fill-opacity="0" stroke="#1e1a1b" stroke-width="1" stroke-opacity="0"></use></g></g></g></svg>