<?xml version="1.0" encoding="UTF-8" standalone="no"?>
<!DOCTYPE svg PUBLIC "-//W3C//DTD SVG 1.1//EN" "http://www.w3.org/Graphics/SVG/1.1/DTD/svg11.dtd">
<svg version="1.1" xmlns="http://www.w3.org/2000/svg" xmlns:xlink="http://www.w3.org/1999/xlink" preserveAspectRatio="xMidYMid meet" viewBox="85.11688311688275 91.79999999999856 201.775510204082 251.02500000000114" width="197.78" height="247.03"><defs><path d="M147.12 338.86L142.12 338.86L136.87 339.82L134.12 338.86L128.37 338.86L122.18 338.86L116.12 338.32L111.62 338.32L107.37 337.07L102.12 335.32L98.12 333.82L93.87 333.82L90.87 333.82L89.37 327.82L86.87 322.57L86.12 313.82L86.12 305.07L86.87 298.32L86.87 291.82L88.12 285.57L89.37 279.32L90.87 270.32L92.87 262.32L95.87 251.07L98.12 242.82L99.87 234.07L103.87 226.07L108.87 215.07L112.37 205.07L116.12 196.07L120.18 190.57L121.43 188.2L122.18 186.57L123.68 182.82L125.93 179.32L127.68 176.07L128.93 173.32L130.68 168.57L133.43 164.32L136.18 159.82L144.68 153.82L150.77 147.07L156.77 141.6L161.18 136.32L169.43 130.4L178.68 125.57L186.57 121.32L190.18 117.57L200.18 114.07L209.64 109.82L216.89 106.82L225.64 104.32L231.89 101.6L240.14 99L249.39 96L261.64 94.57L283.89 92.8L276.49 93.98L271.89 96L262.29 99L256.49 101.6L245.29 105.6L234.69 111.2L225.09 120.2L218.69 126.2L214.29 130.4L208.89 135.4L203.17 141.6L199.37 145.8L194.37 152L191.17 158L186.57 167L181.97 177L177.37 188.2L172.57 197.4L166.1 213.2L156.77 236.53L156.77 247.87L153.1 258.2L153.1 276.53L150.77 288.53L149.57 308.53L149.57 338.86L147.12 338.86Z" id="b1um3alN3U"></path></defs><g><g><g><use xlink:href="#b1um3alN3U" opacity="1" fill-opacity="0" stroke="#1a1a1e" stroke-width="1" stroke-opacity="0"></use></g></g></g></svg>