<?xml version="1.0" encoding="UTF-8" standalone="no"?>
<!DOCTYPE svg PUBLIC "-//W3C//DTD SVG 1.1//EN" "http://www.w3.org/Graphics/SVG/1.1/DTD/svg11.dtd">
<svg version="1.1" xmlns="http://www.w3.org/2000/svg" xmlns:xlink="http://www.w3.org/1999/xlink" preserveAspectRatio="xMidYMid meet" viewBox="65.96684240876337 109.8550955413981 257.03315759123666 353.39490445860145" width="253.03" height="349.39"><defs><path d="M128.89 345.29C131.36 334.94 133.27 329.09 134.61 327.75C140.61 321.75 153.61 266.75 186.11 218.75C207.77 186.75 238.73 156.92 278.99 129.25C344.64 103.92 331.47 104.75 239.47 131.75C147.47 158.75 91.47 246.25 71.47 394.25L68.47 406.25L68.47 415.25L66.97 425.25L66.97 432.25L66.97 440.75L69.97 446.25L79.47 450.25L88.97 455.25L97.47 458.25L105.97 460.25C116.34 404.17 123.98 365.85 128.89 345.29Z" id="blj8L1Kcf"></path></defs><g><g><g><use xlink:href="#blj8L1Kcf" opacity="1" fill-opacity="0" stroke="#5b1414" stroke-width="1" stroke-opacity="0"></use></g></g></g></svg>