<?xml version="1.0" encoding="UTF-8" standalone="no"?>
<!DOCTYPE svg PUBLIC "-//W3C//DTD SVG 1.1//EN" "http://www.w3.org/Graphics/SVG/1.1/DTD/svg11.dtd">
<svg version="1.1" xmlns="http://www.w3.org/2000/svg" xmlns:xlink="http://www.w3.org/1999/xlink" preserveAspectRatio="xMidYMid meet" viewBox="108.0343228200362 110.5070526562132 428.95083487940735 366.2429473437869" width="424.95" height="362.24"><defs><path d="M471.96 451.87L471.96 442.12L469.66 428.75L465.91 419.25L463.41 410.12L460.91 403.75L460.91 401.62L458.66 398.37L455.91 390.37L453.16 385.87L449.41 379.62L445.66 375.62L440.16 368.12L437.41 364.62L431.66 360.87L428.16 357.37L421.41 352.87L416.66 351.62L410.66 347.37L405.66 344.87L398.66 341.87L392.91 339.12L386.43 337.75L380.05 335.62L372.8 332.25L364.55 329.37L355.05 327.37L348.93 325.37L341.3 324.62L334.55 323.37L325.3 323.37L316.8 323.37L308.62 323.37L300.37 324.62L290.37 324.62L280.12 325.87C274.95 327.71 272.26 328.62 272.03 328.62C271.81 328.62 265.92 330.29 254.37 333.62L241.62 337.75L228.37 342.87L222.37 347.37L214.87 352.87L207.37 358.87L200.74 365.62L195.99 370.62L191.99 375.62L187.03 382.87L184.74 391.25L180.74 403.12L179.24 411.62L175.5 435.12L175.5 459.12L174.03 465.75L174.03 470.5L156.53 472.17L143.53 470.5L138.03 466.83L130.03 466.83L125.53 463.83L117.03 463.83L109.03 462.25L109.03 456.25L111.03 448.75L111.03 443.75L114.53 428.75L114.53 419.25L118.53 403.75L120.03 391.25L123.53 373.25L127.53 362.75L132.03 346.25L135.03 332.25L141.53 315.75L148.03 302.25L152.03 291.25L153.53 282.75L160.03 269.25L163.03 262.75L165.53 253.75L174.03 241.25L187.03 222.75L196.53 208.75L206.53 195.25L216.53 184.25L227.03 171.75L237.53 160.75L245.53 152.75L256.03 144.75L264.03 138.75L272.03 133.75L284.03 128.75L297.53 120.75L309.43 118.25L314.43 116.25C318.48 112.31 322.59 110.82 326.73 111.8C332.96 113.25 329.91 112.33 330.93 112.25C335.26 111.92 337.5 112.35 337.66 113.55L348.93 118.25L359.43 122.75L370.93 125.75L376.93 128.75L386.43 135.75L394.93 142.25L399.43 147.75L408.43 152.75L417.99 160.75L422.49 167.25L432.99 175.75L441.99 184.25L448.49 193.75L454.49 203.75L459.99 212.75L464.49 223.75L467.99 232.75L472.99 241.25L477.49 251.75L480.99 262.75L488.49 278.25L492.99 286.75L496.99 302.25L499.49 313.75L503.49 322.25L505.99 330.25L510.99 340.75L513.99 349.25L515.49 358.25L517.49 366.25L521.32 378.25L522.49 391.25L525.99 403.75L527.99 412.75L530.49 422.75L533.99 434.25L533.99 445.25L533.99 456.25L533.99 466.83L521.32 466.83L507.32 467.83L496.99 470.5L484.32 472.17L471.96 473.75L467.99 463.83L471.96 451.87Z" id="dsem5GTeu"></path></defs><g><g><g><use xlink:href="#dsem5GTeu" opacity="1" fill-opacity="0" stroke="#5b1414" stroke-width="1" stroke-opacity="0"></use></g></g></g></svg>