<?xml version="1.0" encoding="UTF-8" standalone="no"?>
<!DOCTYPE svg PUBLIC "-//W3C//DTD SVG 1.1//EN" "http://www.w3.org/Graphics/SVG/1.1/DTD/svg11.dtd">
<svg version="1.1" xmlns="http://www.w3.org/2000/svg" xmlns:xlink="http://www.w3.org/1999/xlink" preserveAspectRatio="xMidYMid meet" viewBox="184.00000000000028 50.9999999999999 251.72244243802896 496.0000000000001" width="247.72" height="492"><defs><path d="M226.71 70.55L185 84.67L195.24 245.47L193.02 324.51L189.5 538L200.5 544L409 541.94L432.72 538L432.72 473.49L429.52 318.48L430.89 82.67L383.5 60.5L369.67 52L372.33 56.67L374 68L370.67 77L364.33 84.67L356 92L347.67 98.33L335.33 103.33L320 105.67L307.67 105.67L295 104.33L283 102.33L273.67 95.67L264.67 89L257.67 82.67L252.67 74.33L249.33 63.33L246.67 58.17L226.71 70.55Z" id="a16Nk44xG1"></path></defs><g><g><g><use xlink:href="#a16Nk44xG1" opacity="1" fill-opacity="0" stroke="#ffffff" stroke-width="1" stroke-opacity="0"></use></g></g></g></svg>