<?xml version="1.0" encoding="UTF-8" standalone="no"?>
<!DOCTYPE svg PUBLIC "-//W3C//DTD SVG 1.1//EN" "http://www.w3.org/Graphics/SVG/1.1/DTD/svg11.dtd">
<svg version="1.1" xmlns="http://www.w3.org/2000/svg" xmlns:xlink="http://www.w3.org/1999/xlink" preserveAspectRatio="xMidYMid meet" viewBox="331.8750000000003 96.1250000000001 18.124999999999773 153.31250000000023" width="14.12" height="149.31"><defs><path d="M344.25 106.81L341.88 107.94L340.75 110.06L340.75 114.44L340.5 120.56L340.5 129.19L340.5 138.56L341.13 141.44L341.13 146.81L341.88 150.44L342.25 153.06L341.88 158.19L343.13 164.19L341.88 168.69L341.13 176.94L341.13 185.19L339.5 192.06L340.5 199.19L339.5 215.31L336.88 226.56L339 234.06L337.75 240.31L335 246.44L334.63 243.19L334.63 239.56L334 234.81L334 225.81L332.88 222.44L332.88 218.94L332.88 214.06L332.88 209.06L332.88 204.69L332.88 199.94L334 188.44L334.63 175.81L334 169.44L334.63 162.06L334 150.44L334 126.81L334.63 115.81L335.63 106.81L335.63 103.56L336.25 100.19L338.13 97.13L340.5 97.13L343.5 97.88L345 99.88L345 103.13L347 105.13L344.25 106.81Z" id="d32sl8WHIG"></path></defs><g><g><g><use xlink:href="#d32sl8WHIG" opacity="1" fill-opacity="0" stroke="#000000" stroke-width="1" stroke-opacity="0"></use></g></g></g></svg>