<?xml version="1.0" encoding="UTF-8" standalone="no"?>
<!DOCTYPE svg PUBLIC "-//W3C//DTD SVG 1.1//EN" "http://www.w3.org/Graphics/SVG/1.1/DTD/svg11.dtd">
<svg version="1.1" xmlns="http://www.w3.org/2000/svg" xmlns:xlink="http://www.w3.org/1999/xlink" preserveAspectRatio="xMidYMid meet" viewBox="435.8623432844208 116.92238738738732 112.83462641254897 381.33333333333337" width="108.83" height="377.33"><defs><path d="M452.55 266.59L455.55 273.76L462.86 304.76L465.53 326.09L469.36 331.92L469.36 342.26L470.36 348.26L470.86 359.26L474.7 367.26L481.53 384.26L474.7 412.92L476.7 432.76L478.7 453.92L477.86 461.26L475.86 470.26L478.36 475.76L479.86 481.59L482.7 486.26L488.03 488.59L493.7 489.76L498.03 490.92L502.86 491.92L509.86 493.26L512.53 493.26L522.36 495.26L531.03 495.26L534.7 493.92L540.86 490.92L542.86 487.42L544.7 482.92L544.7 477.76L545.2 471.42L544.03 466.59L544.03 459.76L543.36 454.42L541.86 450.26L541.86 444.92L542.86 440.26L545.2 428.42L545.7 414.09L545.7 393.92L545.7 383.26L545.7 367.26L542.86 354.59L541.36 347.42L541.86 343.26L540.2 334.42L540.2 327.26L540.2 322.76L538.03 315.42L532.2 295.42L531.7 281.59L528.36 265.92L525.36 247.76L522.36 230.09L515.03 207.92L507.86 186.42L497.53 161.59L486.36 138.76L479.03 132.59L472.36 125.92L465.2 117.92L452.03 149.92L450.2 165.42L445.7 188.92L441.53 227.92L436.86 243.92L441.53 248.26L442.03 255.42L452.55 266.59Z" id="b4xFGInhi"></path></defs><g><g><g><use xlink:href="#b4xFGInhi" opacity="1" fill-opacity="0" stroke="#000000" stroke-width="1" stroke-opacity="0"></use></g></g></g></svg>