<?xml version="1.0" encoding="UTF-8" standalone="no"?>
<!DOCTYPE svg PUBLIC "-//W3C//DTD SVG 1.1//EN" "http://www.w3.org/Graphics/SVG/1.1/DTD/svg11.dtd">
<svg version="1.1" xmlns="http://www.w3.org/2000/svg" xmlns:xlink="http://www.w3.org/1999/xlink" preserveAspectRatio="xMidYMid meet" viewBox="97.01669758812577 142.12499999999926 104.55666136611038 365.0000000000012" width="100.56" height="361"><defs><path d="M195.77 208.37L195.02 203.37C195.99 201.52 196.73 199.64 197.24 197.73C197.43 197.04 198.3 196.29 198.1 195.58C197.72 194.19 196.96 192.16 198.1 192.04C199.65 191.89 197.37 185.56 191.24 173.06L179.52 152.87L165.24 143.12L152.27 162.37L145.77 181.62L137.02 210.87L127.02 241.12L119.27 273.63L111.77 302.38L107.77 324.88L103.27 347.88L100.27 371.88L98.77 384.88L100.27 401.88L98.77 401.88L98.77 412.13L100.27 419.88L101.52 429.63L105.77 443.63L105.77 450.13L104.02 456.13L101.52 458.63L98.02 466.63L98.77 474.13L102.52 477.88L104.77 481.38L105.77 485.38L105.77 490.38L105.77 494.63L112.77 503.13L117.77 503.13L120.52 504.13L128.02 503.13L135.02 503.13L139.02 501.13L142.27 499.13L143.77 496.63L148.77 494.63L152.27 495.88L157.24 495.13L159.24 492.63L161.24 486.88L161.99 482.13L160.24 480.13L159.24 476.88L159.24 467.63L160.24 462.63L161.99 453.63L165.24 448.13C167.41 445.79 168.91 443.71 169.74 441.88C170.58 440.04 171.24 438.38 171.74 436.88L174.99 426.63L175.74 419.88L175.74 412.13L173.99 406.88L169.74 399.13L165.95 391.88L165.95 384.88L167.49 377.63L171.74 369.38L173.99 362.13L173.99 355.38L173.99 347.88L172.99 342.88L171.74 336.38L172.99 332.13L177.24 324.88L181.74 313.88L184.49 305.13L188.74 297.13L191.24 286.13L194.49 274.63L197.24 266.88L196.49 248.38L195.77 208.37Z" id="c1yqMi5ez9"></path></defs><g><g><g><use xlink:href="#c1yqMi5ez9" opacity="1" fill-opacity="0" stroke="#000000" stroke-width="1" stroke-opacity="0"></use></g></g></g></svg>