<?xml version="1.0" encoding="UTF-8" standalone="no"?>
<!DOCTYPE svg PUBLIC "-//W3C//DTD SVG 1.1//EN" "http://www.w3.org/Graphics/SVG/1.1/DTD/svg11.dtd">
<svg version="1.1" xmlns="http://www.w3.org/2000/svg" xmlns:xlink="http://www.w3.org/1999/xlink" preserveAspectRatio="xMidYMid meet" viewBox="77.82436611007986 137.37878787878583 113.69449598021092 364.5000000000035" width="109.69" height="360.5"><defs><path d="M186.35 258.88L179.09 267.88L176.26 271.38L175.42 275.21L175.42 285.38C174.53 287.71 174.03 289.55 173.92 290.88C173.81 292.21 172.81 294.43 170.92 297.55L169.09 305.05L165.76 311.55L164.09 323.05L162.76 325.38L162.76 336.38L162.09 344.21L162.09 364.38L162.09 371.71L159.92 383.88L159.42 388.55L159.42 394.38L158.09 401.55L157.69 408.21L156.26 418.88L155.59 424.38L154.92 435.55L153.42 440.55L153.42 451.21L152.26 455.71L151.02 460.38L150.22 463.55L149.19 467.71L149.19 470.38L147.09 475.55L145.59 478.38L144.59 479.71L142.09 483.88L144.59 484.71L142.09 491.71L140.09 492.71L134.26 494.55L130.49 495.05L126.49 496.88L121.32 497.55L114.99 498.55L103.99 498.88L97.66 498.88L90.99 498.55C89.66 498.3 88.77 497.96 88.32 497.55C87.88 497.13 86.99 496.3 85.66 495.05L84.32 491.05L85.66 487.88L87.82 486.21L90.99 485.21L89.16 482.88L86.99 480.71L85.16 477.21L83.66 472.71C82.1 470.93 81.05 469.27 80.49 467.71C79.94 466.16 79.77 464.43 79.99 462.55L78.82 457.05L79.99 448.05L81.99 437.21C82.21 423.32 82.55 417.21 82.99 418.88C83.44 420.55 83.1 418.27 81.99 412.05L81.49 403.05C81.49 401.49 81.49 399.82 81.49 398.05C81.49 396.27 81.66 394.16 81.99 391.71L82.99 386.71L83.66 378.38L85.16 361.05L90.32 323.05L94.96 288.88L97.29 281.88L99.96 268.71L106.96 248.71L111.79 227.88L118.79 200.71L129.02 176.38L137.02 157.55L149.19 138.38L151.02 143.71L156.85 152.05L157.69 156.38L165.02 172.55L172.35 182.71L179.85 198.71L186.35 216.21L188.52 230.88L188.52 255.71L186.35 258.88Z" id="c5Hupv7HYS"></path></defs><g><g><g><use xlink:href="#c5Hupv7HYS" opacity="1" fill-opacity="0" stroke="#000000" stroke-width="1" stroke-opacity="0"></use></g></g></g></svg>