<?xml version="1.0" encoding="UTF-8" standalone="no"?>
<!DOCTYPE svg PUBLIC "-//W3C//DTD SVG 1.1//EN" "http://www.w3.org/Graphics/SVG/1.1/DTD/svg11.dtd">
<svg version="1.1" xmlns="http://www.w3.org/2000/svg" xmlns:xlink="http://www.w3.org/1999/xlink" preserveAspectRatio="xMidYMid meet" viewBox="467.8710575139148 158.24999999999972 108.00000000000023 348.5000000000003" width="104" height="344.5"><defs><path d="M503.37 458.25C502.06 457.01 508.09 457.31 501.37 453.25C485.37 443.58 482.04 422.42 491.37 389.75L498.37 379.75L487.87 354.75L489.87 347.25L487.87 334.75L491.37 325.75L473.87 280.25L468.87 266.25L468.87 258.75L468.87 240.25L468.87 223.75L478.87 210.75L492.87 199.75L515.87 159.25L520.37 164.75L536.37 208.75L546.87 225.25L556.87 278.25L571.37 330.25L572.87 405.25L564.37 433.75L564.37 441.75L567.87 450.75L571.37 462.25L567.87 469.25L567.87 475.25L562.37 475.25L559.87 479.25L562.37 485.75L558.37 494.75L549.37 500.25L549.37 503.75L539.37 502.75L522.37 500.25L514.37 494.75L504.87 494.75L501.37 487.25L498.37 479.25L504.87 470.25L503.37 458.25C505.18 459.96 505.18 459.96 503.37 458.25Z" id="dOLatKrlE"></path></defs><g><g><g><use xlink:href="#dOLatKrlE" opacity="1" fill-opacity="0" stroke="#000000" stroke-width="1" stroke-opacity="0"></use></g></g></g></svg>