<?xml version="1.0" encoding="UTF-8" standalone="no"?>
<!DOCTYPE svg PUBLIC "-//W3C//DTD SVG 1.1//EN" "http://www.w3.org/Graphics/SVG/1.1/DTD/svg11.dtd">
<svg version="1.1" xmlns="http://www.w3.org/2000/svg" xmlns:xlink="http://www.w3.org/1999/xlink" preserveAspectRatio="xMidYMid meet" viewBox="214.5517369330176 48.89545454545368 189.89185670278397 69.40000000000018" width="185.89" height="65.4"><defs><path d="M346.22 104.3L346.22 101.3L346.22 98.5L342.82 97.7L338.02 96.75L335.62 100.3L335.02 103.1L335.02 106.5L333.62 108.5L325.62 109.3L321.82 109.3L316.62 109.3L308.62 111.3L299.02 113.5L294.02 115.3L293.03 112.3L292.43 110.1L291.23 106.5L290.03 103.1L288.63 101.3L288.63 98.9L288.63 95.7L285.03 91.9L282.63 90.9L280.03 91.9L280.03 94.7L281.03 96.75L281.83 100.3L283.54 104.9L286.03 110.1L277.23 112.3C274.83 112.43 272.49 112.63 270.23 112.9C267.96 113.16 266.36 112.96 265.43 112.3L260.43 111.3L255.83 110.1L251.63 107.3L248.43 104.9L241.03 98.5L235.03 97.7L225.12 96.75C222.05 96.45 219.45 96.1 217.32 95.7C215.18 95.3 214.98 94.5 216.72 93.3C216.98 90.5 217.18 88.23 217.32 86.5C217.45 84.76 218.32 82.9 219.92 80.9L221.92 78.5L224.32 76.1L224.32 73.3L223.34 70.5L221.32 65.3L223.34 58.5L225.94 54.1L242.54 52.7L253.74 51.7L283.54 49.9L320 50.3L336.24 50.9L350.84 50.3L371.44 51.7L382.64 51.7L390.24 52.7L396.64 55.3L398.24 57.7L399.24 63.1L398.64 66.5L398.64 69.5L398.64 76.1L400.44 80.9L400.44 85.5L401.44 90.9L400.44 93.3L396.64 92.7L388.44 90.9L381.64 90.9L378.04 91.9L374.84 93.3L370.84 95.1L367.44 96.75L360.44 98.9L357.64 100.7L352.64 102.5L350.84 104.9L347.24 105.9L346.22 104.3Z" id="aBoGc54wy"></path></defs><g><g><g><use xlink:href="#aBoGc54wy" opacity="1" fill-opacity="0" stroke="#000000" stroke-width="1" stroke-opacity="0"></use></g></g></g></svg>