<?xml version="1.0" encoding="UTF-8" standalone="no"?>
<!DOCTYPE svg PUBLIC "-//W3C//DTD SVG 1.1//EN" "http://www.w3.org/Graphics/SVG/1.1/DTD/svg11.dtd">
<svg version="1.1" xmlns="http://www.w3.org/2000/svg" xmlns:xlink="http://www.w3.org/1999/xlink" preserveAspectRatio="xMidYMid meet" viewBox="164.9540816326527 98.12499999999905 352.5667903525051 418.6250000000012" width="348.57" height="414.63"><defs><path d="M384 507.75L320 513.75L288.5 510.75L256.5 506.25L239 506.25L213.5 499.75L207 494.25L205 480.75L202 466.75L199.5 450.25L198.45 438.25L202 425.75L205 413.75L202 409.25L202 398.25L199.5 383.25L199.5 370.25L202 348.25L202 334.75L198.45 306.75L198.45 277.37L196.45 250.37C196.45 229.71 196.45 219.37 196.45 219.37C196.45 219.37 196 216.16 196.45 209.87C196.65 207.24 194.09 203.44 196.45 200.12C201.79 192.62 196.29 176.79 179.95 152.62L169.95 145.37L165.95 143.37L176.7 130.37L192.95 118.62L228.7 104.37L234.5 104.37L295.37 156.12L315.62 167.37L336.94 169.25L366.44 158.62L377.44 147.62L402.44 123.87L419.94 108.37L426.02 99.12L429.77 101.87L477.02 119.12L494.77 133.87L514.52 159.25L492.52 198.87L478.02 209.87L468.87 224.25L468.87 267.25L466 357.25L461.49 388.75L456.99 401.25L456.99 409.25L458.49 413.75L461.49 423.25L463.99 434.75L461.49 454.25L461.49 469.75L459.99 484.25C456.99 491.92 454.49 497.58 452.49 501.25C450.49 504.92 445.82 505.75 438.49 503.75L384 507.75Z" id="a2PocjTkZT"></path></defs><g><g><g><use xlink:href="#a2PocjTkZT" opacity="1" fill-opacity="0" stroke="#000000" stroke-width="1" stroke-opacity="0"></use></g></g></g></svg>