<?xml version="1.0" encoding="UTF-8" standalone="no"?>
<!DOCTYPE svg PUBLIC "-//W3C//DTD SVG 1.1//EN" "http://www.w3.org/Graphics/SVG/1.1/DTD/svg11.dtd">
<svg version="1.1" xmlns="http://www.w3.org/2000/svg" xmlns:xlink="http://www.w3.org/1999/xlink" preserveAspectRatio="xMidYMid meet" viewBox="478.0775510204082 486.6954545454539 54.00000000000006 46.40000000000009" width="50" height="42.4"><defs><path d="M488.5 490.73L495.63 492.11L505.88 493.98L507.68 494.86L511.25 494.86L513.88 495.61L523.13 496.73L529.08 497.3L528.48 498.9L528.48 503.9L527.48 509.3L526.08 515.5L525.08 520.7L525.08 526.3L523.48 528.7L520.28 530.1L513.28 529.7L507.68 528.7L499.68 527.5L491.28 526.3L485.68 525.1L480.68 521.3L479.08 519.5L480.68 517.3L480.68 509.9L481.28 503.9L483.68 497.3L484.68 493.7L482.48 487.7L488.5 490.73Z" id="d5JIwY6FFe"></path></defs><g><g><g><use xlink:href="#d5JIwY6FFe" opacity="1" fill-opacity="0" stroke="#000000" stroke-width="1" stroke-opacity="0"></use></g></g></g></svg>