<?xml version="1.0" encoding="UTF-8" standalone="no"?>
<!DOCTYPE svg PUBLIC "-//W3C//DTD SVG 1.1//EN" "http://www.w3.org/Graphics/SVG/1.1/DTD/svg11.dtd">
<svg version="1.1" xmlns="http://www.w3.org/2000/svg" xmlns:xlink="http://www.w3.org/1999/xlink" preserveAspectRatio="xMidYMid meet" viewBox="91.13752319109452 494.107954545454 53.125000000000085 39.62500000000006" width="49.13" height="35.63"><defs><path d="M100.39 499.48L108.26 499.48L115.89 498.88L122.89 497.98L126.64 497.98L128.89 496.23L131.76 495.61L135.26 495.11L136.39 496.23L136.39 500.98L137.01 504.73L138.51 509.36L139.39 511.23L140.64 516.73L141.26 520.36L140.64 522.98L138.51 525.11L135.76 526.11L131.76 527.48L125.01 528.48L120.51 530.23L115.89 530.73L111.26 530.73L105.01 530.73L100.39 530.23L97.51 528.98L94.76 525.11L94.76 521.36L94.26 511.86L95.26 507.23L94.26 505.11L93.51 501.61L92.14 499.48L100.39 499.48Z" id="a9W1NJKbn"></path></defs><g><g><g><use xlink:href="#a9W1NJKbn" opacity="1" fill-opacity="0" stroke="#000000" stroke-width="1" stroke-opacity="0"></use></g></g></g></svg>