<?xml version="1.0" encoding="UTF-8" standalone="no"?>
<!DOCTYPE svg PUBLIC "-//W3C//DTD SVG 1.1//EN" "http://www.w3.org/Graphics/SVG/1.1/DTD/svg11.dtd">
<svg version="1.1" xmlns="http://www.w3.org/2000/svg" xmlns:xlink="http://www.w3.org/1999/xlink" preserveAspectRatio="xMidYMid meet" viewBox="206.5635708828985 498.87499999999886 253.06213563649573 58.500000000000114" width="249.06" height="54.5"><defs><path d="M438.74 548.57C445.19 547.35 448.12 544.75 451.04 545.12C456.21 545.79 457.79 541.37 455.79 531.87L453.04 503.75L446.79 505.12L437.79 504.37L347.79 512.37L320.66 514.87L256.66 506.12L239.42 506.12L213.92 499.87L211.17 503.75C205.33 533 206.58 546.79 214.92 545.12C216.54 544.8 218.75 547.63 221.57 548.57C226.36 550.17 232.88 550.58 241.13 551.68C252.99 553.26 268.42 554.15 287.42 554.37L418.97 550.62C427.19 550.19 433.78 549.5 438.74 548.57Z" id="cAFdw86Zt"></path></defs><g><g><g><use xlink:href="#cAFdw86Zt" opacity="1" fill-opacity="0" stroke="#000000" stroke-width="1" stroke-opacity="0"></use></g></g></g></svg>