<?xml version="1.0" encoding="UTF-8" standalone="no"?>
<!DOCTYPE svg PUBLIC "-//W3C//DTD SVG 1.1//EN" "http://www.w3.org/Graphics/SVG/1.1/DTD/svg11.dtd">
<svg version="1.1" xmlns="http://www.w3.org/2000/svg" xmlns:xlink="http://www.w3.org/1999/xlink" preserveAspectRatio="xMidYMid meet" viewBox="187.77643784786613 498.3749999999994 248.89192949907266 50.00000000000017" width="244.89" height="46"><defs><path d="M191.53 503.87L196.4 504.94L200.28 504.94L206.4 505.81L211.65 506.44L217.03 507.19L228.09 507.19L230.96 508.44L233.46 509.56L240.09 511.19L245.34 511.94L256.64 513.44L264.27 514.13L273.77 514.13L286.64 514.81L302.38 514.81L309.63 514.81L316.13 514.13L326.88 513.44L338.63 514.81L354.65 514.81L375.9 511.94L381.4 512.44L389.65 511.94L402.51 510.06L423.67 503.87L430.38 501.06L433.67 499.37L433.67 503.87L433.67 514.13L433.67 523.87L433.67 531.12L431.67 535.37C428.84 536.54 426.17 537.21 423.67 537.37C421.17 537.54 416.86 538.54 410.73 540.37C402.06 542.04 396.48 542.96 393.98 543.12C391.48 543.29 384.56 543.54 373.23 543.87L339.98 545.37L286.03 545.37L248.28 545.37L218.53 540.37L204.28 538.12L193.53 535.37L191.53 530.12L188.78 519.37L188.78 502.37L191.53 503.87Z" id="a2k3JMJpa7"></path></defs><g><g><g><use xlink:href="#a2k3JMJpa7" opacity="1" fill-opacity="0" stroke="#000000" stroke-width="1" stroke-opacity="0"></use></g></g></g></svg>