<?xml version="1.0" encoding="UTF-8" standalone="no"?>
<!DOCTYPE svg PUBLIC "-//W3C//DTD SVG 1.1//EN" "http://www.w3.org/Graphics/SVG/1.1/DTD/svg11.dtd">
<svg version="1.1" xmlns="http://www.w3.org/2000/svg" xmlns:xlink="http://www.w3.org/1999/xlink" preserveAspectRatio="xMidYMid meet" viewBox="149.22170686456366 90.48214285714286 318.27829313543623 426.6428571428585" width="314.28" height="422.64"><defs><path d="M388.7 511.63L376.2 511.63L354.25 514.13L339.47 514.13L326.75 513.13L312.25 514.13C308.08 514.13 304.25 514.13 300.75 514.13C297.25 514.13 290.9 514.13 281.72 514.13L266.5 513.13C257.79 512.85 250.29 512.19 244 511.13C237.71 510.06 232.62 508.6 228.75 506.75L217.18 506.75L206.25 505.25L200.25 504.13L195.25 504.13L191.5 503.25L188.97 501.38L187.72 494.13L184.47 484.63L181.93 470.63L180.72 456.25L182.47 433.38L183.47 426.38L186.97 416.63L182.47 396.38L181.93 380.13L183.47 336.88L188.97 301.13L188.97 261.88L188.97 249.75L188.97 229.88L186.97 216.38L184.47 209.12L180.72 198.63L176.47 190.37L173.43 183.12L169.97 177.37L165.22 171.12L160.22 159.87L157.47 152.12L151.22 143.12L150.22 138.37L155.22 133.37L162.18 126.37L173.43 119.25L181.93 114.62L196.43 106.38L208.93 101.63L217.75 98.75L220.32 96.75L229.11 98.13L240.36 99.38L247.96 105.59L252.43 109.39L257.07 111.2L262.82 112.77L269.43 113.62L284.72 111.2L285.22 117.37L287.22 124.87L287.22 130.62L287.97 140.13L287.97 147.37L288.72 164.62L289.72 173.87L288.72 187.63L288.72 199.63L288.72 209.88L288.72 214.38L290.47 224.88L290.47 236.38L289.72 241.38L292.97 247.88L294.97 245.25L293.97 240.38L293.97 231.88L293.97 222.13L293.97 206.38L296.72 193.38L297.47 181.13L297.47 163.37L294.97 137.62L293.97 117.87L293.97 115.62L296.72 114.62L304.47 113.25L310.47 111.87L315.47 110.37L320.97 109.87L324.47 110.37L334.72 108.87L333.72 115.62L333.72 131.37L333.72 143.12L333.72 153.62L334.72 163.37L333.72 172.62L333.72 181.13L333.72 191.88L332.72 198.63L332.72 212.88L332.72 222.13L333.72 227.63L333.72 236.38L334.72 242.13L334.72 247.88L335.97 245.25L338.47 240.38L339.47 233.63L338.47 229.88L337.22 225.88L338.47 221.13L339.97 215.38L340.72 201.38L340.72 192.38L341.47 185.38L341.47 178.88L342.47 167.88L343.72 163.88L342.47 157.63L342.47 151.13L341.47 145.13L341.47 140.13L340.72 136.63L340.72 132.13L340.72 128.88L340.72 123.88L340.72 119.88L341.47 115.62L341.47 110.37L344.59 107.75L349.73 106.04L353.37 103.25L360.84 99.38L369.45 96.75L377.16 93.34L382.52 91.48L389.05 91.48L395.84 93.34L400.16 94.55L402.5 96.75L413.5 98.75L431.5 103.25L445.5 107.75L457.5 113.25L464.5 119.25L461 127.25L452 150.25L445.5 186.25L441 228.75L436.5 245.25L441 249.75L441 263.25L441 352.75L445.5 456.25L445.5 467.25L443 476.25L438 482.75L436.5 493.25L430.5 500.5L424 503.25L413.5 506.75L402.5 509.75L388.7 511.63Z" id="cCYqS6wit"></path></defs><g><g><g><use xlink:href="#cCYqS6wit" opacity="1" fill-opacity="0" stroke="#000000" stroke-width="1" stroke-opacity="0"></use></g></g></g></svg>